<?xml version="1.0" standalone="no"?>
<!DOCTYPE svg PUBLIC "-//W3C//DTD SVG 20010904//EN"
 "http://www.w3.org/TR/2001/REC-SVG-20010904/DTD/svg10.dtd">
<svg version="1.0" xmlns="http://www.w3.org/2000/svg"
 width="2244.000000pt" height="1658.000000pt" viewBox="0 0 2244.000000 1658.000000"
 preserveAspectRatio="xMidYMid meet">
<metadata>
Created by potrace 1.15, written by Peter Selinger 2001-2017
</metadata>
<g transform="translate(0.000000,1658.000000) scale(0.100000,-0.100000)"
fill="#000000" stroke="none">
<path d="M2355 16564 c-545 -60 -1049 -260 -1430 -569 -119 -97 -302 -286
-391 -405 -289 -386 -465 -858 -519 -1390 -14 -136 -16 -379 -13 -2025 l4
-1870 22 -140 c100 -625 336 -1118 719 -1501 358 -359 848 -605 1393 -699 288
-50 208 -48 2068 -52 l1742 -4 0 875 0 876 -1712 3 c-1710 3 -1713 3 -1799 24
-278 69 -444 192 -549 407 -98 200 -111 293 -117 854 l-5 452 1841 0 1841 0 0
855 0 855 -1840 0 -1840 0 0 358 c0 391 10 579 39 711 88 399 334 612 765 660
63 7 641 11 1736 11 l1640 0 0 865 0 865 -1732 -1 c-1418 -1 -1757 -4 -1863
-15z"/>
<path d="M7570 13848 c0 -2729 3 -2960 36 -3213 81 -627 309 -1182 676 -1648
114 -145 379 -405 528 -517 472 -358 1014 -574 1654 -661 195 -26 652 -37 858
-20 855 71 1567 377 2122 911 467 450 794 1083 911 1760 52 302 49 87 52 3218
l3 2902 -890 0 -890 0 0 -2804 c0 -3049 3 -2897 -55 -3133 -121 -501 -456
-867 -936 -1023 -392 -128 -889 -128 -1279 -1 -487 161 -823 519 -954 1017
-64 247 -59 5 -63 3117 l-3 2827 -885 0 -885 0 0 -2732z"/>
<path d="M21105 16574 c-22 -2 -110 -9 -195 -15 -1079 -76 -2018 -405 -2750
-965 -257 -196 -596 -520 -791 -754 -711 -853 -1101 -1887 -1258 -3330 -48
-442 -67 -835 -76 -1565 -9 -763 -34 -1176 -101 -1655 -14 -102 -27 -195 -27
-207 -1 -12 -4 -20 -5 -18 -6 5 -100 -54 -162 -101 -81 -62 -191 -179 -244
-261 -46 -72 -106 -189 -106 -208 0 -6 68 -9 191 -7 l191 4 -7 -34 c-27 -130
-168 -504 -257 -682 -52 -106 -180 -327 -186 -321 -2 2 -13 59 -23 127 -25
163 -36 609 -20 763 48 449 214 836 473 1106 40 41 93 92 116 113 24 21 41 40
39 43 -11 10 -195 -58 -322 -120 -165 -81 -291 -160 -480 -302 -227 -171 -365
-294 -651 -580 -240 -239 -263 -265 -284 -320 -12 -33 -55 -145 -95 -250 -130
-342 -222 -642 -244 -796 -11 -83 -5 -144 34 -323 46 -212 138 -568 155 -598
11 -20 13 -39 2 -22 -5 8 -50 -6 -142 -43 -357 -144 -794 -241 -1300 -288
-124 -11 -584 -33 -727 -35 -10 0 -13 -168 -13 -807 l0 -806 308 6 c794 17
1425 112 2016 303 164 53 443 161 452 175 3 5 28 -25 55 -67 133 -204 530
-740 783 -1059 399 -503 572 -678 1037 -1050 507 -407 1135 -848 1485 -1044
409 -228 1320 -518 1794 -572 308 -35 620 51 1188 327 284 137 423 217 495
284 128 117 674 835 864 1135 38 60 108 208 119 250 7 27 -3 21 -84 -56 -270
-254 -600 -407 -1011 -470 -279 -42 -694 -37 -964 12 -488 88 -1162 353 -1712
674 -181 105 -509 322 -660 435 -303 228 -862 766 -1249 1203 -241 272 -531
640 -659 837 -30 47 -66 99 -78 115 -13 17 -17 24 -8 18 14 -11 32 4 125 100
533 547 922 1217 1160 2000 26 86 53 157 58 157 6 0 98 -47 206 -104 719 -381
1338 -849 1950 -1472 349 -356 600 -663 855 -1044 393 -589 621 -1117 716
-1655 26 -151 36 -423 20 -561 -10 -87 -47 -256 -66 -306 -9 -24 16 -23 149 2
713 138 1075 683 981 1481 -127 1088 -1037 2447 -2340 3495 -676 545 -1442
973 -2132 1194 -69 22 -128 38 -132 36 -3 -2 1 57 11 132 60 483 83 916 98
1882 10 620 16 767 45 1095 104 1157 371 1944 866 2556 108 134 362 389 504
508 545 454 1308 672 2513 717 l182 7 0 793 0 794 -317 -2 c-175 -1 -336 -3
-358 -4z"/>
<path d="M8290 4831 c-92 -14 -184 -33 -195 -41 -5 -4 -25 -11 -42 -15 -76
-16 -211 -96 -296 -174 -76 -72 -160 -219 -199 -351 -18 -62 -22 -100 -22
-215 0 -140 12 -207 50 -292 8 -17 14 -34 14 -37 0 -7 46 -80 70 -110 179
-229 472 -341 845 -322 263 13 453 75 501 164 17 31 18 51 14 156 -12 312 -8
327 88 346 31 6 73 14 92 18 40 8 71 55 51 75 -9 9 -114 12 -374 11 -322 0
-366 -2 -394 -17 -23 -12 -33 -25 -33 -41 0 -29 54 -51 150 -61 87 -10 117
-26 130 -73 19 -69 23 -150 10 -234 -21 -137 -50 -184 -135 -224 -59 -28 -220
-26 -295 3 -119 46 -225 113 -288 182 -176 193 -224 545 -112 811 72 170 214
292 390 336 83 21 266 15 324 -10 44 -20 113 -63 138 -88 20 -20 58 -87 58
-102 0 -11 78 -86 90 -86 16 0 29 27 41 87 11 54 11 72 -5 138 -21 91 -53 123
-149 149 -70 20 -419 31 -517 17z"/>
<path d="M10240 4834 c-8 -3 -24 -9 -35 -14 -11 -4 -49 -18 -85 -31 -54 -19
-160 -74 -160 -83 0 -10 39 -44 57 -50 12 -4 32 -19 43 -33 19 -24 20 -40 20
-302 0 -152 5 -391 11 -531 7 -140 9 -277 5 -304 -9 -61 -48 -101 -106 -111
-21 -4 -51 -18 -66 -31 -37 -35 -20 -50 59 -47 34 1 161 2 282 3 121 0 228 3
238 6 39 12 17 39 -77 95 -42 25 -62 45 -79 79 -22 45 -22 49 -27 700 l-5 655
-30 2 c-16 1 -37 0 -45 -3z"/>
<path d="M10920 4819 c-36 -11 -73 -24 -82 -30 -10 -5 -23 -9 -29 -9 -18 0
-159 -70 -159 -78 1 -12 27 -42 37 -42 20 0 66 -44 78 -74 10 -24 14 -160 16
-595 l3 -564 -29 -23 c-16 -12 -48 -27 -72 -33 -42 -11 -83 -41 -83 -61 0 -23
44 -32 109 -24 36 5 161 8 276 9 116 0 215 4 222 8 17 11 -9 67 -32 67 -13 0
-99 43 -112 55 -35 36 -37 62 -44 720 -4 358 -7 660 -8 673 -1 26 -7 26 -91 1z"/>
<path d="M9520 4803 c-58 -30 -76 -92 -44 -158 27 -57 58 -79 114 -79 44 0 53
4 80 34 43 48 55 93 40 141 -7 21 -21 46 -32 56 -27 25 -115 28 -158 6z"/>
<path d="M6075 4773 c-45 -11 -81 -63 -118 -173 -33 -95 -101 -277 -120 -320
-11 -25 -37 -90 -59 -145 -41 -105 -44 -112 -102 -238 -20 -43 -36 -83 -36
-88 0 -5 -3 -9 -7 -9 -11 1 -225 437 -312 635 -12 28 -31 68 -41 90 -10 22
-36 77 -56 123 -21 46 -49 92 -62 103 -27 21 -90 25 -157 9 -25 -6 -78 -5
-145 2 -127 13 -203 -2 -208 -40 -4 -28 43 -58 107 -67 25 -3 60 -13 78 -21
29 -13 32 -20 39 -72 8 -68 -1 -382 -15 -537 -6 -60 -15 -212 -21 -336 -5
-133 -14 -237 -21 -253 -15 -32 -43 -51 -89 -60 -87 -18 -130 -37 -136 -62 -4
-14 -3 -28 1 -32 12 -12 146 -8 222 7 59 11 93 12 186 3 200 -21 268 -13 252
30 -7 18 -81 58 -107 58 -28 0 -102 37 -124 61 -40 45 -45 101 -40 524 2 220
8 413 13 429 8 27 13 20 80 -115 39 -79 81 -166 93 -194 32 -72 68 -151 101
-222 16 -34 29 -64 29 -67 0 -7 86 -192 117 -251 14 -27 40 -77 57 -110 17
-33 34 -61 39 -63 4 -2 7 -10 7 -19 0 -27 34 -9 60 32 15 22 44 87 65 145 21
58 41 110 45 115 4 6 26 62 50 125 23 63 51 134 61 157 11 23 19 44 19 47 0 3
11 29 24 58 13 29 31 76 41 103 10 28 21 55 25 60 4 6 22 51 40 100 33 90 56
135 69 135 11 0 31 -501 31 -757 l0 -232 -25 -19 c-14 -11 -52 -28 -86 -38
-57 -17 -109 -52 -109 -72 0 -21 60 -35 118 -26 74 11 456 11 550 0 55 -7 79
-6 97 4 41 22 28 80 -17 80 -32 0 -129 38 -163 65 -61 46 -67 88 -71 515 -2
206 -9 425 -15 485 -9 94 -9 115 5 147 17 40 59 78 86 78 35 0 157 47 179 69
18 18 20 25 10 37 -9 11 -56 14 -263 13 -138 -1 -260 -3 -271 -6z"/>
<path d="M6995 4326 c-5 -2 -37 -12 -70 -22 -121 -35 -256 -140 -318 -246
-121 -206 -97 -459 58 -611 97 -96 192 -136 338 -144 108 -6 160 6 305 73 60
27 75 39 87 68 8 20 15 38 15 41 0 13 -91 3 -145 -16 -75 -27 -209 -23 -264 7
-100 55 -155 122 -192 239 -20 60 -16 239 5 300 51 146 102 203 202 225 69 16
102 0 195 -91 69 -68 85 -79 115 -79 73 0 116 59 93 127 -33 103 -79 124 -274
129 -77 2 -144 2 -150 0z"/>
<path d="M9666 4293 c-11 -3 -55 -29 -99 -59 -44 -30 -87 -54 -94 -54 -35 0
-113 -34 -127 -55 -14 -21 -13 -24 2 -37 9 -8 32 -21 50 -28 64 -25 67 -42 67
-353 l0 -279 -28 -24 c-15 -13 -46 -27 -67 -30 -41 -7 -80 -35 -80 -59 0 -38
73 -42 235 -15 61 10 128 7 223 -11 70 -14 122 2 122 37 0 19 -9 28 -37 40
-84 36 -100 47 -118 81 -19 34 -20 53 -16 327 9 561 11 530 -33 519z"/>
</g>
</svg>
