<svg id="svg" xmlns="http://www.w3.org/2000/svg" xmlns:xlink="http://www.w3.org/1999/xlink" width="400" height="295.54367201426027" viewBox="0, 0, 400,295.54367201426027"><g id="svgg"><path id="path0" d="M281.640 142.618 C 274.650 145.035,267.252 150.387,257.649 159.974 C 253.372 164.244,252.966 164.703,252.593 165.686 C 252.370 166.275,251.606 168.280,250.895 170.143 C 247.531 178.953,246.157 184.215,246.531 186.856 C 246.913 189.557,249.327 199.531,249.906 200.802 C 249.995 200.998,250.642 203.078,251.343 205.423 C 253.522 212.709,255.533 218.321,257.226 221.836 C 257.992 223.426,258.667 224.543,261.641 229.144 C 266.859 237.219,279.498 253.324,284.658 258.475 C 293.691 267.491,315.881 283.475,324.510 287.181 C 339.426 293.587,353.134 296.599,359.804 294.936 C 366.311 293.313,379.408 287.264,382.415 284.492 C 385.680 281.482,397.261 265.755,399.088 261.850 C 400.354 259.144,400.295 259.048,398.438 260.796 C 391.221 267.587,380.347 270.668,367.591 269.536 C 352.560 268.202,330.301 257.708,316.310 245.359 C 305.166 235.522,292.750 221.776,286.933 212.834 C 286.391 212.001,285.790 211.118,285.598 210.872 C 283.459 208.132,278.699 198.256,276.057 191.077 C 268.985 171.858,271.683 152.099,282.602 143.137 C 284.118 141.893,283.970 141.813,281.640 142.618 M312.941 151.369 C 312.903 151.498,312.659 153.008,312.398 154.724 C 311.806 158.625,310.736 163.964,309.834 167.513 C 309.424 169.129,309.221 170.232,309.334 170.232 C 309.626 170.232,316.200 173.754,318.806 175.307 C 350.478 194.179,375.482 227.399,376.244 251.618 C 376.367 255.554,375.868 259.519,374.949 261.898 C 374.787 262.316,375.235 262.308,377.613 261.849 C 399.262 257.671,401.332 233.128,382.447 204.545 C 366.870 180.971,339.908 159.726,315.761 151.999 C 312.879 151.077,313.018 151.108,312.941 151.369 M282.432 152.299 C 279.036 154.383,275.790 158.086,274.580 161.256 C 274.209 162.227,273.832 162.134,277.831 162.064 L 281.241 162.005 281.874 159.389 C 282.528 156.690,283.489 151.871,283.390 151.791 C 283.359 151.766,282.928 151.994,282.432 152.299 " stroke="none" fill="#747474" fill-rule="evenodd"></path><path id="path1" d="M41.979 0.291 C 18.456 2.844,2.666 18.792,0.264 42.424 C 0.017 44.856,-0.009 49.187,0.042 78.520 L 0.100 111.854 0.499 114.349 C 3.925 135.823,17.525 149.991,38.146 153.570 C 43.288 154.462,41.847 154.426,75.000 154.495 L 106.061 154.560 106.061 138.960 L 106.061 123.360 75.535 123.304 C 45.065 123.247,45.006 123.246,43.475 122.867 C 38.516 121.638,35.567 119.452,33.684 115.611 C 31.942 112.058,31.714 110.397,31.602 100.401 L 31.511 92.335 64.329 92.335 L 97.148 92.335 97.148 77.094 L 97.148 61.854 64.349 61.854 L 31.551 61.854 31.551 55.481 C 31.552 41.290,33.012 36.560,38.381 33.359 C 42.707 30.780,41.821 30.838,76.820 30.838 L 106.061 30.838 106.061 15.419 L 106.061 0.000 75.178 0.020 C 49.912 0.036,43.875 0.085,41.979 0.291 M134.941 48.708 C 134.945 103.332,134.945 103.322,136.205 109.982 C 142.263 141.988,171.692 161.260,206.700 156.148 C 232.688 152.353,251.536 134.320,255.885 109.091 C 256.814 103.705,256.752 107.535,256.813 51.738 L 256.870 0.000 241.002 0.000 L 225.134 0.000 225.134 49.991 C 225.134 93.287,225.098 100.252,224.868 101.996 C 222.991 116.214,213.794 124.559,198.753 125.692 C 183.146 126.867,171.145 119.245,167.670 105.951 C 166.521 101.557,166.608 105.863,166.541 50.401 L 166.480 0.000 150.709 0.000 L 134.938 0.000 134.941 48.708 M376.203 0.115 C 375.811 0.146,374.247 0.259,372.727 0.366 C 346.273 2.233,324.939 12.591,309.602 31.016 C 292.847 51.144,286.346 75.006,285.830 118.271 C 285.668 131.837,285.133 140.418,283.943 148.482 C 283.748 149.807,283.556 151.296,283.518 151.791 C 283.376 153.599,281.640 161.506,281.289 161.942 C 281.209 162.040,280.965 162.760,280.748 163.541 C 279.330 168.628,276.931 174.245,274.244 178.772 L 273.094 180.710 273.615 182.824 C 275.615 190.942,279.815 200.943,284.690 209.196 L 285.600 210.737 286.935 209.424 C 296.656 199.861,306.129 183.294,308.886 171.034 C 308.996 170.544,309.485 168.458,309.971 166.399 C 313.563 151.212,314.576 140.871,314.977 115.330 C 315.607 75.127,321.989 56.370,340.196 41.202 C 349.916 33.105,363.509 29.224,384.982 28.416 L 388.235 28.293 388.235 14.147 L 388.235 0.000 382.576 0.030 C 379.463 0.046,376.595 0.085,376.203 0.115 M247.415 201.908 C 238.355 205.564,226.116 207.513,211.275 207.663 C 211.098 207.664,211.052 210.661,211.052 222.043 L 211.052 236.421 216.533 236.305 C 230.699 236.004,241.947 234.315,252.469 230.908 C 255.200 230.024,260.373 228.040,260.505 227.827 C 260.550 227.754,260.022 226.823,259.333 225.756 C 256.549 221.450,254.288 215.761,251.043 204.902 C 250.398 202.745,249.860 200.971,249.846 200.959 C 249.833 200.947,248.739 201.374,247.415 201.908 " stroke="none" fill="#e43c3c" fill-rule="evenodd"></path><path id="path2" d="" stroke="none" fill="#c66e62" fill-rule="evenodd"></path><path id="path3" d="" stroke="none" fill="#90807a" fill-rule="evenodd"></path><path id="path4" d="" stroke="none" fill="#d45c54" fill-rule="evenodd"></path></g></svg>